<?xml version="1.0" encoding="UTF-8"?>
<!DOCTYPE svg PUBLIC "-//W3C//DTD SVG 1.1//EN" "http://www.w3.org/Graphics/SVG/1.1/DTD/svg11.dtd">
<!-- Creator: CorelDRAW -->
<svg xmlns="http://www.w3.org/2000/svg" xml:space="preserve" width="6.6146mm" height="6.6146mm" version="1.1" style="shape-rendering:geometricPrecision; text-rendering:geometricPrecision; image-rendering:optimizeQuality; fill-rule:evenodd; clip-rule:evenodd"
viewBox="0 0 430.27 430.27"
 xmlns:xlink="http://www.w3.org/1999/xlink"
 xmlns:xodm="http://www.corel.com/coreldraw/odm/2003">
 <defs>
  <style type="text/css">
   <![CDATA[
    .fil0 {fill:#313131}
   ]]>
  </style>
 </defs>
 <g id="Слой_x0020_1">
  <metadata id="CorelCorpID_0Corel-Layer"/>
  <path class="fil0" d="M25.82 215.14c0,-50.21 19.94,-98.37 55.45,-133.87 35.5,-35.5 83.66,-55.45 133.87,-55.45 50.21,0 98.37,19.94 133.87,55.45 35.5,35.5 55.45,83.66 55.45,133.87 0,50.21 -19.94,98.37 -55.45,133.87 -35.5,35.5 -83.66,55.45 -133.87,55.45 -50.21,0 -98.37,-19.94 -133.87,-55.45 -35.5,-35.5 -55.45,-83.66 -55.45,-133.87zm100.72 -4.74c-3.04,3.04 -4.76,7.17 -4.76,11.48 0,4.31 1.71,8.44 4.76,11.48l53.55 53.56c1.51,1.52 3.3,2.71 5.27,3.54 1.97,0.82 4.08,1.24 6.22,1.24 2.13,0 4.25,-0.42 6.21,-1.24 1.97,-0.83 3.76,-2.02 5.27,-3.54l110.88 -110.92c1.53,-1.5 2.75,-3.29 3.58,-5.26 0.83,-1.98 1.27,-4.1 1.27,-6.24 0.01,-2.14 -0.4,-4.27 -1.22,-6.24 -0.81,-1.98 -2.02,-3.78 -3.53,-5.3 -1.52,-1.52 -3.32,-2.72 -5.3,-3.54 -1.98,-0.81 -4.1,-1.23 -6.24,-1.22 -2.14,0.01 -4.26,0.44 -6.24,1.27 -1.97,0.83 -3.76,2.04 -5.26,3.57l-99.45 99.45 -42.05 -42.09c-1.51,-1.5 -3.3,-2.7 -5.27,-3.52 -1.96,-0.81 -4.08,-1.24 -6.21,-1.24 -2.13,0 -4.24,0.42 -6.21,1.24 -1.97,0.82 -3.76,2.02 -5.27,3.52zm170.84 -193.98c-25.93,-10.73 -53.85,-16.42 -82.24,-16.42 -28.38,0 -56.31,5.69 -82.24,16.42 -26.01,10.77 -49.82,26.52 -69.89,46.59 -20.07,20.07 -35.82,43.88 -46.59,69.89 -10.73,25.93 -16.42,53.85 -16.42,82.24 0,28.38 5.69,56.31 16.42,82.24 10.77,26.01 26.52,49.82 46.59,69.89 20.07,20.07 43.88,35.82 69.89,46.59 25.93,10.73 53.85,16.42 82.24,16.42 28.38,0 56.31,-5.69 82.24,-16.42 26.01,-10.77 49.82,-26.52 69.89,-46.59 20.07,-20.07 35.82,-43.88 46.59,-69.89 10.73,-25.93 16.42,-53.85 16.42,-82.24 0,-28.38 -5.69,-56.31 -16.42,-82.24 -10.77,-26.01 -26.52,-49.82 -46.59,-69.89 -20.07,-20.07 -43.88,-35.82 -69.89,-46.59z"/>
 </g>
</svg>
