<svg width="22" height="22" viewBox="0 0 22 22" fill="none" xmlns="http://www.w3.org/2000/svg">
<path d="M13.7316 3L16.5584 7.99991M5.25117 7.99991L8.07796 3M18.3675 7.99991H3.44201C3.23003 7.99557 3.0198 8.03949 2.82689 8.12842C2.63398 8.21734 2.46333 8.349 2.3276 8.51363C2.19186 8.67826 2.09451 8.87164 2.04275 9.07946C1.991 9.28728 1.98617 9.5042 2.02862 9.71416L3.58335 17.5712C3.64943 17.8987 3.82706 18.1924 4.08531 18.4012C4.34357 18.6101 4.66609 18.7207 4.99675 18.714H16.8128C17.1434 18.7207 17.466 18.6101 17.7242 18.4012C17.9825 18.1924 18.1601 17.8987 18.2262 17.5712L19.7809 9.71416C19.8234 9.5042 19.8185 9.28728 19.7668 9.07946C19.715 8.87164 19.6177 8.67826 19.4819 8.51363C19.3462 8.349 19.1755 8.21734 18.9826 8.12842C18.7897 8.03949 18.5795 7.99557 18.3675 7.99991Z" stroke="#313131" stroke-width="1.5" stroke-linecap="round" stroke-linejoin="round"/>
</svg>
