<svg width="22" height="22" viewBox="0 0 22 22" fill="none" xmlns="http://www.w3.org/2000/svg">
<path fill-rule="evenodd" clip-rule="evenodd" d="M10.9048 2.37799C9.25946 2.37799 7.92564 3.71181 7.92564 5.35716C7.92564 7.00251 9.25946 8.33632 10.9048 8.33632C12.5502 8.33632 13.884 7.00251 13.884 5.35716C13.884 3.71181 12.5502 2.37799 10.9048 2.37799ZM6.55064 5.35716C6.55064 2.95242 8.50007 1.00299 10.9048 1.00299C13.3095 1.00299 15.259 2.95242 15.259 5.35716C15.259 7.7619 13.3095 9.71132 10.9048 9.71132C8.50007 9.71132 6.55064 7.7619 6.55064 5.35716ZM6.05651 13.5813C4.82859 14.272 4.25897 15.1186 4.25897 15.8988C4.25897 17.0975 4.29592 17.7724 4.92227 18.2825C5.26193 18.5591 5.82972 18.829 6.80163 19.0258C7.77049 19.2219 9.0951 19.3363 10.9048 19.3363C12.7145 19.3363 14.0391 19.2219 15.008 19.0258C15.9799 18.829 16.5477 18.5591 16.8873 18.2825C17.5137 17.7724 17.5506 17.0975 17.5506 15.8988C17.5506 15.1186 16.981 14.272 15.7531 13.5813C14.5468 12.9027 12.834 12.4613 10.9048 12.4613C8.97562 12.4613 7.26285 12.9027 6.05651 13.5813ZM5.38239 12.3829C6.83026 11.5685 8.78416 11.0863 10.9048 11.0863C13.0255 11.0863 14.9794 11.5685 16.4272 12.3829C17.8535 13.1852 18.9256 14.4011 18.9256 15.8988C18.9256 15.9297 18.9257 15.9609 18.9257 15.9923C18.9267 17.0572 18.928 18.3938 17.7556 19.3486C17.1786 19.8185 16.3714 20.1527 15.2808 20.3735C14.1872 20.5948 12.7618 20.7113 10.9048 20.7113C9.04784 20.7113 7.62245 20.5948 6.52882 20.3735C5.43822 20.1527 4.63101 19.8185 4.05401 19.3486C2.88158 18.3938 2.88288 17.0572 2.88391 15.9923C2.88394 15.9609 2.88397 15.9297 2.88397 15.8988C2.88397 14.4011 3.95611 13.1852 5.38239 12.3829Z" fill="#313131"/>
</svg>
