<svg width="22" height="22" viewBox="0 0 22 22" fill="none" xmlns="http://www.w3.org/2000/svg">
<path fill-rule="evenodd" clip-rule="evenodd" d="M11.021 2.375C9.37561 2.375 8.04179 3.70882 8.04179 5.35417C8.04179 6.99951 9.37561 8.33333 11.021 8.33333C12.6663 8.33333 14.0001 6.99951 14.0001 5.35417C14.0001 3.70882 12.6663 2.375 11.021 2.375ZM6.66679 5.35417C6.66679 2.94943 8.61622 1 11.021 1C13.4257 1 15.3751 2.94943 15.3751 5.35417C15.3751 7.75891 13.4257 9.70833 11.021 9.70833C8.61622 9.70833 6.66679 7.75891 6.66679 5.35417ZM6.17266 13.5783C4.94474 14.269 4.37512 15.1156 4.37512 15.8958C4.37512 17.0945 4.41207 17.7694 5.03842 18.2795C5.37808 18.5561 5.94587 18.8261 6.91778 19.0228C7.88664 19.2189 9.21125 19.3333 11.021 19.3333C12.8307 19.3333 14.1553 19.2189 15.1241 19.0228C16.096 18.8261 16.6638 18.5561 17.0035 18.2795C17.6298 17.7694 17.6668 17.0945 17.6668 15.8958C17.6668 15.1156 17.0972 14.269 15.8693 13.5783C14.6629 12.8997 12.9501 12.4583 11.021 12.4583C9.09177 12.4583 7.379 12.8997 6.17266 13.5783ZM5.49854 12.3799C6.94641 11.5655 8.90031 11.0833 11.021 11.0833C13.1416 11.0833 15.0955 11.5655 16.5434 12.3799C17.9697 13.1822 19.0418 14.3982 19.0418 15.8958C19.0418 15.9267 19.0418 15.9579 19.0418 15.9893C19.0429 17.0542 19.0442 18.3908 17.8718 19.3456C17.2947 19.8155 16.4875 20.1497 15.3969 20.3705C14.3033 20.5919 12.8779 20.7083 11.021 20.7083C9.16399 20.7083 7.7386 20.5919 6.64497 20.3705C5.55437 20.1497 4.74716 19.8155 4.17016 19.3456C2.99773 18.3908 2.99903 17.0542 3.00006 15.9893C3.00009 15.9579 3.00012 15.9267 3.00012 15.8958C3.00012 14.3982 4.07226 13.1822 5.49854 12.3799Z" fill="#F4F4F4"/>
</svg>
