<svg width="26" height="26" viewBox="0 0 26 26" fill="none" xmlns="http://www.w3.org/2000/svg">
<g clip-path="url(#clip0_123_117)">
<path d="M13 2C15.9174 2 18.7153 3.15893 20.7782 5.22183C22.8411 7.28473 24 10.0826 24 13C24 15.9174 22.8411 18.7153 20.7782 20.7782C18.7153 22.8411 15.9174 24 13 24C10.0826 24 7.28473 22.8411 5.22183 20.7782C3.15893 18.7153 2 15.9174 2 13C2 10.0826 3.15893 7.28473 5.22183 5.22183C7.28473 3.15893 10.0826 2 13 2ZM11.6297 15.1701L9.18614 12.725C9.09854 12.6374 8.99454 12.5679 8.88009 12.5205C8.76563 12.4731 8.64296 12.4487 8.51907 12.4487C8.39518 12.4487 8.27251 12.4731 8.15805 12.5205C8.0436 12.5679 7.9396 12.6374 7.852 12.725C7.67508 12.9019 7.57569 13.1419 7.57569 13.3921C7.57569 13.6423 7.67508 13.8822 7.852 14.0591L10.9634 17.1706C11.0508 17.2586 11.1547 17.3285 11.2692 17.3762C11.3837 17.4239 11.5065 17.4484 11.6305 17.4484C11.7545 17.4484 11.8773 17.4239 11.9918 17.3762C12.1063 17.3285 12.2102 17.2586 12.2976 17.1706L18.7404 10.7261C18.8292 10.6389 18.8998 10.535 18.9482 10.4203C18.9966 10.3056 19.0218 10.1825 19.0224 10.058C19.023 9.93358 18.9989 9.81024 18.9516 9.69513C18.9043 9.58001 18.8346 9.47541 18.7467 9.38735C18.6587 9.29929 18.5542 9.22952 18.4391 9.18205C18.3241 9.13459 18.2007 9.11038 18.0763 9.11081C17.9518 9.11124 17.8287 9.13631 17.714 9.18457C17.5992 9.23283 17.4952 9.30333 17.4079 9.392L11.6297 15.1701Z" fill="url(#paint0_linear_123_117)" stroke="#313131" stroke-width="3"/>
<path d="M13 2C15.9174 2 18.7153 3.15893 20.7782 5.22183C22.8411 7.28473 24 10.0826 24 13C24 15.9174 22.8411 18.7153 20.7782 20.7782C18.7153 22.8411 15.9174 24 13 24C10.0826 24 7.28473 22.8411 5.22183 20.7782C3.15893 18.7153 2 15.9174 2 13C2 10.0826 3.15893 7.28473 5.22183 5.22183C7.28473 3.15893 10.0826 2 13 2ZM11.6297 15.1701L9.18614 12.725C9.09854 12.6374 8.99454 12.5679 8.88009 12.5205C8.76563 12.4731 8.64296 12.4487 8.51907 12.4487C8.39518 12.4487 8.27251 12.4731 8.15805 12.5205C8.0436 12.5679 7.9396 12.6374 7.852 12.725C7.67508 12.9019 7.57569 13.1419 7.57569 13.3921C7.57569 13.6423 7.67508 13.8822 7.852 14.0591L10.9634 17.1706C11.0508 17.2586 11.1547 17.3285 11.2692 17.3762C11.3837 17.4239 11.5065 17.4484 11.6305 17.4484C11.7545 17.4484 11.8773 17.4239 11.9918 17.3762C12.1063 17.3285 12.2102 17.2586 12.2976 17.1706L18.7404 10.7261C18.8292 10.6389 18.8998 10.535 18.9482 10.4203C18.9966 10.3056 19.0218 10.1825 19.0224 10.058C19.023 9.93358 18.9989 9.81024 18.9516 9.69513C18.9043 9.58001 18.8346 9.47541 18.7467 9.38735C18.6587 9.29929 18.5542 9.22952 18.4391 9.18205C18.3241 9.13459 18.2007 9.11038 18.0763 9.11081C17.9518 9.11124 17.8287 9.13631 17.714 9.18457C17.5992 9.23283 17.4952 9.30333 17.4079 9.392L11.6297 15.1701Z" fill="url(#paint1_linear_123_117)"/>
</g>
<defs>
<linearGradient id="paint0_linear_123_117" x1="2.50769" y1="2" x2="24" y2="24" gradientUnits="userSpaceOnUse">
<stop stop-color="#9FFF25"/>
<stop offset="1" stop-color="#24FF00"/>
</linearGradient>
<linearGradient id="paint1_linear_123_117" x1="2.50769" y1="2" x2="24" y2="24" gradientUnits="userSpaceOnUse">
<stop stop-color="#9FFF25"/>
<stop offset="1" stop-color="#24FF00"/>
</linearGradient>
<clipPath id="clip0_123_117">
<rect width="26" height="26" fill="white"/>
</clipPath>
</defs>
</svg>
