<svg width="111" height="111" viewBox="0 0 111 111" fill="none" xmlns="http://www.w3.org/2000/svg">
<path d="M11 16H99.0914V79C99.0914 87.2843 92.3757 94 84.0914 94H11V16Z" fill="#313131"/>
<path d="M35.3155 79C31.3226 79 28.2282 77.9448 26.0321 75.8344C23.836 73.7239 22.738 70.7055 22.738 66.7791V31H29.9251V66.4847C29.9251 68.5951 30.4492 70.2147 31.4973 71.3436C32.5954 72.4724 34.1426 73.0368 36.139 73.0368C38.385 73.0368 40.2567 72.4233 41.754 71.1963L44 76.2761C42.902 77.2086 41.5793 77.8957 40.0321 78.3374C38.5348 78.7791 36.9626 79 35.3155 79ZM16 45.3558V39.5399H41.3048V45.3558H16Z" fill="#9FFF25"/>
<path d="M49 81V29H71.5086C76.1638 29 80.1752 29.7676 83.5429 31.3029C86.9105 32.7886 89.5105 34.9429 91.3429 37.7657C93.1752 40.5886 94.0914 43.9562 94.0914 47.8686C94.0914 51.7314 93.1752 55.0743 91.3429 57.8971C89.5105 60.72 86.9105 62.8991 83.5429 64.4343C80.1752 65.92 76.1638 66.6629 71.5086 66.6629H55.6857L61.0343 61.24V81H49ZM61.0343 62.5771L55.6857 56.8571H70.84C74.5543 56.8571 77.3276 56.0648 79.16 54.48C80.9924 52.8952 81.9086 50.6914 81.9086 47.8686C81.9086 44.9962 80.9924 42.7676 79.16 41.1829C77.3276 39.5981 74.5543 38.8057 70.84 38.8057H55.6857L61.0343 33.0857V62.5771Z" fill="#9FFF25"/>
</svg>
