<svg width="174" height="42" viewBox="0 0 174 42" fill="none" xmlns="http://www.w3.org/2000/svg">
<path d="M10.32 35.96C8.18667 35.96 6.53333 35.3866 5.36 34.24C4.18667 33.0933 3.6 31.4533 3.6 29.32V9.87998H7.44V29.16C7.44 30.3066 7.72 31.1866 8.28 31.8C8.86667 32.4133 9.69333 32.72 10.76 32.72C11.96 32.72 12.96 32.3866 13.76 31.72L14.96 34.48C14.3733 34.9866 13.6667 35.36 12.84 35.6C12.04 35.84 11.2 35.96 10.32 35.96ZM0 17.68V14.52H13.52V17.68H0Z" fill="#9FFF25"/>
<path d="M28.3394 35.96C26.0727 35.96 24.0727 35.4933 22.3394 34.56C20.6327 33.6266 19.2994 32.3466 18.3394 30.72C17.406 29.0933 16.9394 27.2266 16.9394 25.12C16.9394 23.0133 17.3927 21.1466 18.2994 19.52C19.2327 17.8933 20.4994 16.6266 22.0994 15.72C23.726 14.7866 25.5527 14.32 27.5794 14.32C29.6327 14.32 31.446 14.7733 33.0194 15.68C34.5927 16.5866 35.8194 17.8666 36.6994 19.52C37.606 21.1466 38.0594 23.0533 38.0594 25.24C38.0594 25.4 38.046 25.5866 38.0194 25.8C38.0194 26.0133 38.006 26.2133 37.9794 26.4H19.9394V23.64H35.9794L34.4194 24.6C34.446 23.24 34.166 22.0266 33.5794 20.96C32.9927 19.8933 32.1794 19.0666 31.1394 18.48C30.126 17.8666 28.9394 17.56 27.5794 17.56C26.246 17.56 25.0594 17.8666 24.0194 18.48C22.9794 19.0666 22.166 19.9066 21.5794 21C20.9927 22.0666 20.6994 23.2933 20.6994 24.68V25.32C20.6994 26.7333 21.0194 28 21.6594 29.12C22.326 30.2133 23.246 31.0666 24.4194 31.68C25.5927 32.2933 26.9394 32.6 28.4594 32.6C29.7127 32.6 30.846 32.3866 31.8594 31.96C32.8994 31.5333 33.806 30.8933 34.5794 30.04L36.6994 32.52C35.7394 33.64 34.5394 34.4933 33.0994 35.08C31.686 35.6666 30.0994 35.96 28.3394 35.96Z" fill="#9FFF25"/>
<path d="M52.6316 35.96C50.4716 35.96 48.5382 35.4933 46.8316 34.56C45.1516 33.6266 43.8316 32.3466 42.8716 30.72C41.9116 29.0933 41.4316 27.2266 41.4316 25.12C41.4316 23.0133 41.9116 21.1466 42.8716 19.52C43.8316 17.8933 45.1516 16.6266 46.8316 15.72C48.5382 14.7866 50.4716 14.32 52.6316 14.32C54.5516 14.32 56.2582 14.7066 57.7516 15.48C59.2716 16.2266 60.4449 17.3466 61.2716 18.84L58.3516 20.72C57.6582 19.68 56.8049 18.92 55.7916 18.44C54.8049 17.9333 53.7382 17.68 52.5916 17.68C51.2049 17.68 49.9649 17.9866 48.8716 18.6C47.7782 19.2133 46.9116 20.08 46.2716 21.2C45.6316 22.2933 45.3116 23.6 45.3116 25.12C45.3116 26.64 45.6316 27.96 46.2716 29.08C46.9116 30.2 47.7782 31.0666 48.8716 31.68C49.9649 32.2933 51.2049 32.6 52.5916 32.6C53.7382 32.6 54.8049 32.36 55.7916 31.88C56.8049 31.3733 57.6582 30.6 58.3516 29.56L61.2716 31.4C60.4449 32.8666 59.2716 34 57.7516 34.8C56.2582 35.5733 54.5516 35.96 52.6316 35.96Z" fill="#9FFF25"/>
<path d="M77.2897 14.32C79.023 14.32 80.543 14.6533 81.8497 15.32C83.183 15.9866 84.223 17 84.9697 18.36C85.7164 19.72 86.0897 21.44 86.0897 23.52V35.72H82.2497V23.96C82.2497 21.9066 81.743 20.36 80.7297 19.32C79.743 18.28 78.343 17.76 76.5297 17.76C75.1697 17.76 73.983 18.0266 72.9697 18.56C71.9564 19.0933 71.1697 19.88 70.6097 20.92C70.0764 21.96 69.8097 23.2533 69.8097 24.8V35.72H65.9697V6.03998H69.8097V20.24L69.0497 18.72C69.743 17.3333 70.8097 16.2533 72.2497 15.48C73.6897 14.7066 75.3697 14.32 77.2897 14.32Z" fill="#9FFF25"/>
<path d="M94.0897 0H173.09V27C173.09 35.2843 166.374 42 158.09 42H94.0897V0Z" fill="#F4F4F4"/>
<path d="M100.09 35V7H112.21C114.716 7 116.876 7.41333 118.69 8.24C120.503 9.04 121.903 10.2 122.89 11.72C123.876 13.24 124.37 15.0533 124.37 17.16C124.37 19.24 123.876 21.04 122.89 22.56C121.903 24.08 120.503 25.2533 118.69 26.08C116.876 26.88 114.716 27.28 112.21 27.28H103.69L106.57 24.36V35H100.09ZM106.57 25.08L103.69 22H111.85C113.85 22 115.343 21.5733 116.33 20.72C117.316 19.8667 117.81 18.68 117.81 17.16C117.81 15.6133 117.316 14.4133 116.33 13.56C115.343 12.7067 113.85 12.28 111.85 12.28H103.69L106.57 9.2V25.08Z" fill="#313131"/>
<path d="M128.556 35V13.48H134.516V19.56L133.676 17.8C134.316 16.28 135.343 15.1333 136.756 14.36C138.169 13.56 139.889 13.16 141.916 13.16V18.92C141.649 18.8933 141.409 18.88 141.196 18.88C140.983 18.8533 140.756 18.84 140.516 18.84C138.809 18.84 137.423 19.3333 136.356 20.32C135.316 21.28 134.796 22.7867 134.796 24.84V35H128.556Z" fill="#313131"/>
<path d="M155.671 35.32C153.378 35.32 151.338 34.84 149.551 33.88C147.791 32.92 146.391 31.6133 145.351 29.96C144.338 28.28 143.831 26.3733 143.831 24.24C143.831 22.08 144.338 20.1733 145.351 18.52C146.391 16.84 147.791 15.5333 149.551 14.6C151.338 13.64 153.378 13.16 155.671 13.16C157.938 13.16 159.964 13.64 161.751 14.6C163.538 15.5333 164.938 16.8267 165.951 18.48C166.964 20.1333 167.471 22.0533 167.471 24.24C167.471 26.3733 166.964 28.28 165.951 29.96C164.938 31.6133 163.538 32.92 161.751 33.88C159.964 34.84 157.938 35.32 155.671 35.32ZM155.671 30.2C156.711 30.2 157.644 29.96 158.471 29.48C159.298 29 159.951 28.32 160.431 27.44C160.911 26.5333 161.151 25.4667 161.151 24.24C161.151 22.9867 160.911 21.92 160.431 21.04C159.951 20.16 159.298 19.48 158.471 19C157.644 18.52 156.711 18.28 155.671 18.28C154.631 18.28 153.698 18.52 152.871 19C152.044 19.48 151.378 20.16 150.871 21.04C150.391 21.92 150.151 22.9867 150.151 24.24C150.151 25.4667 150.391 26.5333 150.871 27.44C151.378 28.32 152.044 29 152.871 29.48C153.698 29.96 154.631 30.2 155.671 30.2Z" fill="#313131"/>
</svg>
