<svg width="174" height="42" viewBox="0 0 174 42" fill="none" xmlns="http://www.w3.org/2000/svg">
<path d="M94.0897 0H173.09V27C173.09 35.2843 166.374 42 158.09 42H94.0897V0Z" fill="#313131"/>
<path d="M100.09 35V7H112.21C114.716 7 116.876 7.41333 118.69 8.24C120.503 9.04 121.903 10.2 122.89 11.72C123.876 13.24 124.37 15.0533 124.37 17.16C124.37 19.24 123.876 21.04 122.89 22.56C121.903 24.08 120.503 25.2533 118.69 26.08C116.876 26.88 114.716 27.28 112.21 27.28H103.69L106.57 24.36V35H100.09ZM106.57 25.08L103.69 22H111.85C113.85 22 115.343 21.5733 116.33 20.72C117.316 19.8667 117.81 18.68 117.81 17.16C117.81 15.6133 117.316 14.4133 116.33 13.56C115.343 12.7067 113.85 12.28 111.85 12.28H103.69L106.57 9.2V25.08Z" fill="#9FFF25"/>
<path d="M128.556 35V13.48H134.516V19.56L133.676 17.8C134.316 16.28 135.343 15.1333 136.756 14.36C138.169 13.56 139.889 13.16 141.916 13.16V18.92C141.649 18.8933 141.409 18.88 141.196 18.88C140.983 18.8533 140.756 18.84 140.516 18.84C138.809 18.84 137.423 19.3333 136.356 20.32C135.316 21.28 134.796 22.7867 134.796 24.84V35H128.556Z" fill="#9FFF25"/>
<path d="M155.671 35.32C153.378 35.32 151.338 34.84 149.551 33.88C147.791 32.92 146.391 31.6133 145.351 29.96C144.338 28.28 143.831 26.3733 143.831 24.24C143.831 22.08 144.338 20.1733 145.351 18.52C146.391 16.84 147.791 15.5333 149.551 14.6C151.338 13.64 153.378 13.16 155.671 13.16C157.938 13.16 159.964 13.64 161.751 14.6C163.538 15.5333 164.938 16.8267 165.951 18.48C166.964 20.1333 167.471 22.0533 167.471 24.24C167.471 26.3733 166.964 28.28 165.951 29.96C164.938 31.6133 163.538 32.92 161.751 33.88C159.964 34.84 157.938 35.32 155.671 35.32ZM155.671 30.2C156.711 30.2 157.644 29.96 158.471 29.48C159.298 29 159.951 28.32 160.431 27.44C160.911 26.5333 161.151 25.4667 161.151 24.24C161.151 22.9867 160.911 21.92 160.431 21.04C159.951 20.16 159.298 19.48 158.471 19C157.644 18.52 156.711 18.28 155.671 18.28C154.631 18.28 153.698 18.52 152.871 19C152.044 19.48 151.378 20.16 150.871 21.04C150.391 21.92 150.151 22.9867 150.151 24.24C150.151 25.4667 150.391 26.5333 150.871 27.44C151.378 28.32 152.044 29 152.871 29.48C153.698 29.96 154.631 30.2 155.671 30.2Z" fill="#9FFF25"/>
<path d="M10.32 35.92C8.18667 35.92 6.53333 35.3467 5.36 34.2C4.18667 33.0533 3.6 31.4133 3.6 29.28V9.84H7.44V29.12C7.44 30.2667 7.72 31.1467 8.28 31.76C8.86667 32.3733 9.69333 32.68 10.76 32.68C11.96 32.68 12.96 32.3467 13.76 31.68L14.96 34.44C14.3733 34.9467 13.6667 35.32 12.84 35.56C12.04 35.8 11.2 35.92 10.32 35.92ZM0 17.64V14.48H13.52V17.64H0Z" fill="#313131"/>
<path d="M28.3394 35.92C26.0727 35.92 24.0727 35.4533 22.3394 34.52C20.6327 33.5867 19.2994 32.3067 18.3394 30.68C17.406 29.0533 16.9394 27.1867 16.9394 25.08C16.9394 22.9733 17.3927 21.1067 18.2994 19.48C19.2327 17.8533 20.4994 16.5867 22.0994 15.68C23.726 14.7467 25.5527 14.28 27.5794 14.28C29.6327 14.28 31.446 14.7333 33.0194 15.64C34.5927 16.5467 35.8194 17.8267 36.6994 19.48C37.606 21.1067 38.0594 23.0133 38.0594 25.2C38.0594 25.36 38.046 25.5467 38.0194 25.76C38.0194 25.9733 38.006 26.1733 37.9794 26.36H19.9394V23.6H35.9794L34.4194 24.56C34.446 23.2 34.166 21.9867 33.5794 20.92C32.9927 19.8533 32.1794 19.0267 31.1394 18.44C30.126 17.8267 28.9394 17.52 27.5794 17.52C26.246 17.52 25.0594 17.8267 24.0194 18.44C22.9794 19.0267 22.166 19.8667 21.5794 20.96C20.9927 22.0267 20.6994 23.2533 20.6994 24.64V25.28C20.6994 26.6933 21.0194 27.96 21.6594 29.08C22.326 30.1733 23.246 31.0267 24.4194 31.64C25.5927 32.2533 26.9394 32.56 28.4594 32.56C29.7127 32.56 30.846 32.3467 31.8594 31.92C32.8994 31.4933 33.806 30.8533 34.5794 30L36.6994 32.48C35.7394 33.6 34.5394 34.4533 33.0994 35.04C31.686 35.6267 30.0994 35.92 28.3394 35.92Z" fill="#313131"/>
<path d="M52.6316 35.92C50.4716 35.92 48.5382 35.4533 46.8316 34.52C45.1516 33.5867 43.8316 32.3067 42.8716 30.68C41.9116 29.0533 41.4316 27.1867 41.4316 25.08C41.4316 22.9733 41.9116 21.1067 42.8716 19.48C43.8316 17.8533 45.1516 16.5867 46.8316 15.68C48.5382 14.7467 50.4716 14.28 52.6316 14.28C54.5516 14.28 56.2582 14.6667 57.7516 15.44C59.2716 16.1867 60.4449 17.3067 61.2716 18.8L58.3516 20.68C57.6582 19.64 56.8049 18.88 55.7916 18.4C54.8049 17.8933 53.7382 17.64 52.5916 17.64C51.2049 17.64 49.9649 17.9467 48.8716 18.56C47.7782 19.1733 46.9116 20.04 46.2716 21.16C45.6316 22.2533 45.3116 23.56 45.3116 25.08C45.3116 26.6 45.6316 27.92 46.2716 29.04C46.9116 30.16 47.7782 31.0267 48.8716 31.64C49.9649 32.2533 51.2049 32.56 52.5916 32.56C53.7382 32.56 54.8049 32.32 55.7916 31.84C56.8049 31.3333 57.6582 30.56 58.3516 29.52L61.2716 31.36C60.4449 32.8267 59.2716 33.96 57.7516 34.76C56.2582 35.5333 54.5516 35.92 52.6316 35.92Z" fill="#313131"/>
<path d="M77.2897 14.28C79.023 14.28 80.543 14.6133 81.8497 15.28C83.183 15.9467 84.223 16.96 84.9697 18.32C85.7164 19.68 86.0897 21.4 86.0897 23.48V35.68H82.2497V23.92C82.2497 21.8667 81.743 20.32 80.7297 19.28C79.743 18.24 78.343 17.72 76.5297 17.72C75.1697 17.72 73.983 17.9867 72.9697 18.52C71.9564 19.0533 71.1697 19.84 70.6097 20.88C70.0764 21.92 69.8097 23.2133 69.8097 24.76V35.68H65.9697V6H69.8097V20.2L69.0497 18.68C69.743 17.2933 70.8097 16.2133 72.2497 15.44C73.6897 14.6667 75.3697 14.28 77.2897 14.28Z" fill="#313131"/>
</svg>
